<?xml version="1.0" encoding="UTF-8" standalone="no"?>
<svg xmlns="http://www.w3.org/2000/svg" width="32" height="32" viewBox="0 0 32 32">
  <g transform="scale(0.21)">
    <path d="M85.47 82.81H16.99c-3.89 0-7.05-3.16-7.05-7.05v-49.9c0-3.89 3.16-7.05 7.05-7.05h68.47c3.89 0 7.05 3.16 7.05 7.05v49.9c0.01 3.89-3.15 7.05-7.04 7.05z" fill="#005BFF" />
    <path d="M88.52 25.81c0-1.65-1.35-3-3-3H16.94c-1.65 0-3 1.35-3 3v12.01h74.57V25.81z m-64.97 9.61c-2.82 0-5.12-2.3-5.12-5.12s2.3-5.12 5.12-5.12 5.12 2.3 5.12 5.12-2.29 5.12-5.12 5.12z m28.18-0.68H37.47c-2.41 0-4.37-1.96-4.37-4.37s1.96-4.37 4.37-4.37h14.26c2.41 0 4.37 1.96 4.37 4.37s-1.96 4.37-4.37 4.37z" fill="#06F3FF" />
    <path d="M21.33 75.28h29.88c0.55 0 1-0.45 1-1s-0.45-1-1-1H21.33c-0.85 0-1.54-0.69-1.54-1.54V52.46c0-0.55-0.45-1-1-1s-1 0.45-1 1v19.29c0.01 1.94 1.59 3.53 3.54 3.53z" fill="#06F3FF" />
    <path d="M23.55 27.18c-1.72 0-3.12 1.4-3.12 3.12s1.4 3.12 3.12 3.12 3.12-1.4 3.12-3.12-1.4-3.12-3.12-3.12z" fill="#FFFFFF" />
    <path d="M51.73 28.01H37.47c-1.3 0-2.37 1.06-2.37 2.37s1.06 2.37 2.37 2.37h14.26c1.3 0 2.37-1.06 2.37-2.37s-1.07-2.37-2.37-2.37z" fill="#FFFFFF" />
    <path d="M45.99 62.46l-11.43-4.53 11.43-4.37v-4.65L29.61 56v3.95l16.38 7.12z" fill="#FFFFFF" />
    <path d="M56.87 45.48h-3.44L47.51 70.2h3.38z" fill="#FFFFFF" />
    <path d="M74.79 56.03l-16.4-7.09v4.58l11.44 4.45-11.44 4.5v4.62l16.4-7.14z" fill="#FFFFFF" />
  </g>
</svg>
